<mxfile host="app.diagrams.net" modified="2024-03-25T17:54:47.392Z" agent="Mozilla/5.0 (Windows NT 10.0; Win64; x64) AppleWebKit/537.36 (KHTML, like Gecko) Chrome/122.0.0.0 Safari/537.36" etag="Qb8EEaseRloVLz8OjiOv" version="21.1.2" type="device">
  <diagram name="Page-1" id="GHCCZwFHGZ2dIF8Eq7Bc">
    <mxGraphModel dx="840" dy="1098" grid="1" gridSize="10" guides="1" tooltips="1" connect="1" arrows="1" fold="1" page="1" pageScale="1" pageWidth="850" pageHeight="1100" math="0" shadow="0">
      <root>
        <mxCell id="0" />
        <mxCell id="1" parent="0" />
        <mxCell id="qtLm0A7_fBKDtyC4aUwC-1" value="User" style="swimlane;whiteSpace=wrap;html=1;" parent="1" vertex="1">
          <mxGeometry x="30" y="80" width="180" height="520" as="geometry" />
        </mxCell>
        <mxCell id="wLLJhmLu08JExm7nZ9xd-41" value="Provide new type of payement" style="rounded=1;whiteSpace=wrap;html=1;" vertex="1" parent="qtLm0A7_fBKDtyC4aUwC-1">
          <mxGeometry x="37.5" y="180" width="105" height="30" as="geometry" />
        </mxCell>
        <mxCell id="qtLm0A7_fBKDtyC4aUwC-2" value="Car Rental Website" style="swimlane;whiteSpace=wrap;html=1;" parent="1" vertex="1">
          <mxGeometry x="390" y="80" width="250" height="520" as="geometry" />
        </mxCell>
        <mxCell id="wLLJhmLu08JExm7nZ9xd-38" style="edgeStyle=orthogonalEdgeStyle;rounded=0;orthogonalLoop=1;jettySize=auto;html=1;exitX=0.5;exitY=1;exitDx=0;exitDy=0;entryX=0.5;entryY=0;entryDx=0;entryDy=0;" edge="1" parent="qtLm0A7_fBKDtyC4aUwC-2" source="wLLJhmLu08JExm7nZ9xd-35" target="wLLJhmLu08JExm7nZ9xd-37">
          <mxGeometry relative="1" as="geometry" />
        </mxCell>
        <mxCell id="wLLJhmLu08JExm7nZ9xd-35" value="Form to see if there are any damages" style="rounded=1;whiteSpace=wrap;html=1;" vertex="1" parent="qtLm0A7_fBKDtyC4aUwC-2">
          <mxGeometry x="70" y="57.5" width="110" height="45" as="geometry" />
        </mxCell>
        <mxCell id="wLLJhmLu08JExm7nZ9xd-40" style="edgeStyle=orthogonalEdgeStyle;rounded=0;orthogonalLoop=1;jettySize=auto;html=1;exitX=0.5;exitY=1;exitDx=0;exitDy=0;entryX=0.5;entryY=0;entryDx=0;entryDy=0;" edge="1" parent="qtLm0A7_fBKDtyC4aUwC-2" source="wLLJhmLu08JExm7nZ9xd-37" target="wLLJhmLu08JExm7nZ9xd-39">
          <mxGeometry relative="1" as="geometry" />
        </mxCell>
        <mxCell id="wLLJhmLu08JExm7nZ9xd-37" value="Generate bill" style="rounded=1;whiteSpace=wrap;html=1;" vertex="1" parent="qtLm0A7_fBKDtyC4aUwC-2">
          <mxGeometry x="80" y="130" width="90" height="30" as="geometry" />
        </mxCell>
        <mxCell id="wLLJhmLu08JExm7nZ9xd-39" value="" style="rhombus;whiteSpace=wrap;html=1;" vertex="1" parent="qtLm0A7_fBKDtyC4aUwC-2">
          <mxGeometry x="110" y="180" width="30" height="30" as="geometry" />
        </mxCell>
        <mxCell id="qtLm0A7_fBKDtyC4aUwC-3" value="Database" style="swimlane;whiteSpace=wrap;html=1;" parent="1" vertex="1">
          <mxGeometry x="640" y="80" width="180" height="520" as="geometry" />
        </mxCell>
        <mxCell id="wLLJhmLu08JExm7nZ9xd-49" style="edgeStyle=orthogonalEdgeStyle;rounded=0;orthogonalLoop=1;jettySize=auto;html=1;exitX=0.5;exitY=1;exitDx=0;exitDy=0;entryX=0.5;entryY=0;entryDx=0;entryDy=0;" edge="1" parent="qtLm0A7_fBKDtyC4aUwC-3" source="wLLJhmLu08JExm7nZ9xd-43" target="wLLJhmLu08JExm7nZ9xd-48">
          <mxGeometry relative="1" as="geometry" />
        </mxCell>
        <mxCell id="wLLJhmLu08JExm7nZ9xd-43" value="Use previous card" style="rounded=1;whiteSpace=wrap;html=1;" vertex="1" parent="qtLm0A7_fBKDtyC4aUwC-3">
          <mxGeometry x="50" y="180" width="105" height="30" as="geometry" />
        </mxCell>
        <mxCell id="wLLJhmLu08JExm7nZ9xd-52" style="edgeStyle=orthogonalEdgeStyle;rounded=0;orthogonalLoop=1;jettySize=auto;html=1;exitX=0.5;exitY=1;exitDx=0;exitDy=0;entryX=0.5;entryY=0;entryDx=0;entryDy=0;" edge="1" parent="qtLm0A7_fBKDtyC4aUwC-3" source="wLLJhmLu08JExm7nZ9xd-48" target="wLLJhmLu08JExm7nZ9xd-51">
          <mxGeometry relative="1" as="geometry" />
        </mxCell>
        <mxCell id="wLLJhmLu08JExm7nZ9xd-48" value="Complete transaction" style="rounded=1;whiteSpace=wrap;html=1;" vertex="1" parent="qtLm0A7_fBKDtyC4aUwC-3">
          <mxGeometry x="42.5" y="260" width="120" height="30" as="geometry" />
        </mxCell>
        <mxCell id="wLLJhmLu08JExm7nZ9xd-53" style="edgeStyle=orthogonalEdgeStyle;rounded=0;orthogonalLoop=1;jettySize=auto;html=1;exitX=0.5;exitY=1;exitDx=0;exitDy=0;entryX=0.5;entryY=0;entryDx=0;entryDy=0;" edge="1" parent="qtLm0A7_fBKDtyC4aUwC-3" source="wLLJhmLu08JExm7nZ9xd-51" target="wLLJhmLu08JExm7nZ9xd-30">
          <mxGeometry relative="1" as="geometry" />
        </mxCell>
        <mxCell id="wLLJhmLu08JExm7nZ9xd-51" value="Send request to the customer&#39;s saved credit card to return the deposit of 500$" style="rounded=1;whiteSpace=wrap;html=1;" vertex="1" parent="qtLm0A7_fBKDtyC4aUwC-3">
          <mxGeometry x="42.5" y="330" width="120" height="70" as="geometry" />
        </mxCell>
        <mxCell id="wLLJhmLu08JExm7nZ9xd-30" value="" style="ellipse;whiteSpace=wrap;html=1;aspect=fixed;" vertex="1" parent="qtLm0A7_fBKDtyC4aUwC-3">
          <mxGeometry x="90" y="430" width="25" height="25" as="geometry" />
        </mxCell>
        <mxCell id="wLLJhmLu08JExm7nZ9xd-32" value="" style="ellipse;whiteSpace=wrap;html=1;aspect=fixed;" vertex="1" parent="qtLm0A7_fBKDtyC4aUwC-3">
          <mxGeometry x="93.75" y="433.75" width="17.5" height="17.5" as="geometry" />
        </mxCell>
        <mxCell id="wLLJhmLu08JExm7nZ9xd-34" value="CSR" style="swimlane;whiteSpace=wrap;html=1;" vertex="1" parent="1">
          <mxGeometry x="210" y="80" width="180" height="520" as="geometry" />
        </mxCell>
        <mxCell id="qtLm0A7_fBKDtyC4aUwC-4" value="" style="ellipse;whiteSpace=wrap;html=1;aspect=fixed;" parent="wLLJhmLu08JExm7nZ9xd-34" vertex="1">
          <mxGeometry x="10" y="67.5" width="25" height="25" as="geometry" />
        </mxCell>
        <mxCell id="qtLm0A7_fBKDtyC4aUwC-6" value="Inspect car for damages and generate the final bill" style="rounded=1;whiteSpace=wrap;html=1;" parent="wLLJhmLu08JExm7nZ9xd-34" vertex="1">
          <mxGeometry x="60" y="45" width="110" height="70" as="geometry" />
        </mxCell>
        <mxCell id="qtLm0A7_fBKDtyC4aUwC-8" value="" style="endArrow=classic;html=1;rounded=0;exitX=1;exitY=0.5;exitDx=0;exitDy=0;entryX=0;entryY=0.5;entryDx=0;entryDy=0;" parent="wLLJhmLu08JExm7nZ9xd-34" source="qtLm0A7_fBKDtyC4aUwC-4" target="qtLm0A7_fBKDtyC4aUwC-6" edge="1">
          <mxGeometry width="50" height="50" relative="1" as="geometry">
            <mxPoint x="280" y="260" as="sourcePoint" />
            <mxPoint x="330" y="210" as="targetPoint" />
          </mxGeometry>
        </mxCell>
        <mxCell id="wLLJhmLu08JExm7nZ9xd-36" style="edgeStyle=orthogonalEdgeStyle;rounded=0;orthogonalLoop=1;jettySize=auto;html=1;exitX=1;exitY=0.5;exitDx=0;exitDy=0;entryX=0;entryY=0.5;entryDx=0;entryDy=0;" edge="1" parent="1" source="qtLm0A7_fBKDtyC4aUwC-6" target="wLLJhmLu08JExm7nZ9xd-35">
          <mxGeometry relative="1" as="geometry" />
        </mxCell>
        <mxCell id="wLLJhmLu08JExm7nZ9xd-42" style="edgeStyle=orthogonalEdgeStyle;rounded=0;orthogonalLoop=1;jettySize=auto;html=1;exitX=0;exitY=0.5;exitDx=0;exitDy=0;entryX=1;entryY=0.5;entryDx=0;entryDy=0;" edge="1" parent="1" source="wLLJhmLu08JExm7nZ9xd-39" target="wLLJhmLu08JExm7nZ9xd-41">
          <mxGeometry relative="1" as="geometry" />
        </mxCell>
        <mxCell id="wLLJhmLu08JExm7nZ9xd-45" style="edgeStyle=orthogonalEdgeStyle;rounded=0;orthogonalLoop=1;jettySize=auto;html=1;exitX=1;exitY=0.5;exitDx=0;exitDy=0;entryX=0;entryY=0.5;entryDx=0;entryDy=0;" edge="1" parent="1" source="wLLJhmLu08JExm7nZ9xd-39" target="wLLJhmLu08JExm7nZ9xd-43">
          <mxGeometry relative="1" as="geometry" />
        </mxCell>
        <mxCell id="wLLJhmLu08JExm7nZ9xd-50" style="edgeStyle=orthogonalEdgeStyle;rounded=0;orthogonalLoop=1;jettySize=auto;html=1;exitX=0.5;exitY=1;exitDx=0;exitDy=0;entryX=0;entryY=0.5;entryDx=0;entryDy=0;" edge="1" parent="1" source="wLLJhmLu08JExm7nZ9xd-41" target="wLLJhmLu08JExm7nZ9xd-48">
          <mxGeometry relative="1" as="geometry" />
        </mxCell>
      </root>
    </mxGraphModel>
  </diagram>
</mxfile>
